<svg viewBox="0 0 160 160" version="1.1" id="svg_null"><g id="root" stroke="none" stroke-width="1" fill="none" fill-rule="evenodd"><rect id="background.accent" fill="#352f44" x="0" y="0" width="160" height="160"></rect><path d="M40 50l80 0l0 2l-80 0l0 -2zm12 58l56 0l0 2l-56 0l0 -2z" id="shape.primary" fill="#dbd8e3"></path><g id="group" transform="translate(40.000000, 53.000000)"><rect id="Rectangle-14" x="0" y="0" width="80" height="22"></rect><text id="headerText.primary" font-family="Overpass Mono" font-size="15.129265162816784" font-weight="700" letter-spacing="NaN" fill="#dbd8e3" data-text-alignment="C" font-style="normal"><tspan x="2.7236595153808594" y="15">songbird</tspan></text></g><rect id="icon.primary" x="68" y="79" width="24" height="24" display="none" fill="#dbd8e3"></rect><svg xmlns="http://www.w3.org/2000/svg" xmlns:xlink="http://www.w3.org/1999/xlink" viewBox="0 0 32 32" version="1.1" fill="#dbd8e3" id="svg_icon.primary" x="68" y="79" width="24" height="24"><g id="surface1"><path style=" " d="M 22 5 C 18.699219 5 16 7.699219 16 11 C 16 11.4375 16.066406 11.871094 16.15625 12.28125 C 15.578125 12.117188 14.945313 12 14.28125 12 C 12.367188 12 10.925781 12.550781 9.78125 13.28125 L 7.65625 10.59375 L 6.09375 11.84375 L 8.75 15.1875 L 9.4375 16 L 10.21875 15.3125 C 10.976563 14.632813 12.308594 14 14.28125 14 C 16.308594 14 18.3125 15.75 18.3125 15.75 L 18.34375 15.71875 C 18.84375 16.109375 19.390625 16.4375 20 16.65625 L 20.65625 14.78125 C 20.296875 14.652344 19.960938 14.5 19.65625 14.28125 L 19.6875 14.25 C 19.6875 14.25 19.46875 14.074219 19.125 13.8125 C 19.105469 13.792969 19.082031 13.773438 19.0625 13.75 C 18.394531 13.035156 18 12.0625 18 11 C 18 8.78125 19.78125 7 22 7 C 24.21875 7 26 8.78125 26 11 C 26 13.121094 24.3125 14.78125 24.3125 14.78125 L 24 15.0625 L 24 15.5 C 24 19.652344 20.652344 23 16.5 23 C 12.90625 23 9.929688 20.484375 9.1875 17.125 L 9.125 16.84375 L 8.90625 16.65625 L 3.71875 11.3125 L 2.28125 12.6875 L 7.375 17.9375 C 8.152344 20.847656 10.257813 23.207031 13 24.3125 L 13 28 L 15 28 L 15 24.875 C 15.492188 24.953125 15.984375 25 16.5 25 C 16.667969 25 16.832031 24.976563 17 24.96875 L 17 27 L 19 27 L 19 24.65625 C 22.855469 23.582031 25.703125 20.09375 25.90625 15.9375 C 26.207031 15.644531 27.421875 14.382813 27.84375 12.375 L 30 11 L 27.8125 9.59375 C 27.175781 6.964844 24.820313 5 22 5 Z M 22.5 9 C 21.671875 9 21 9.671875 21 10.5 C 21 11.328125 21.671875 12 22.5 12 C 23.328125 12 24 11.328125 24 10.5 C 24 9.671875 23.328125 9 22.5 9 Z M 13.3125 15.5625 L 11.46875 16.34375 C 12.378906 18.5 14.523438 20 17 20 L 17 18 C 15.332031 18 13.917969 16.996094 13.3125 15.5625 Z "></path></g></svg></g></svg>